<svg width="512" height="512" viewBox="0 0 512 512" xmlns="http://www.w3.org/2000/svg">
  <defs>
    <linearGradient id="grad3" x1="0%" y1="0%" x2="100%" y2="0%">
      <stop offset="0%" style="stop-color:#A8E6CF;stop-opacity:1" />
      <stop offset="25%" style="stop-color:#88D8C0;stop-opacity:1" />
      <stop offset="50%" style="stop-color:#36C9DD;stop-opacity:1" />
      <stop offset="75%" style="stop-color:#7FB3D3;stop-opacity:1" />
      <stop offset="100%" style="stop-color:#C7CEEA;stop-opacity:1" />
    </linearGradient>
  </defs>
  
  <!-- Background -->
  <rect width="512" height="512" fill="url(#grad3)"/>
  
  <!-- Wave pattern -->
  <path d="M0,256 Q128,200 256,256 T512,256 L512,512 L0,512 Z" fill="white" opacity="0.2"/>
  <path d="M0,300 Q128,250 256,300 T512,300 L512,512 L0,512 Z" fill="white" opacity="0.15"/>
  <path d="M0,350 Q128,300 256,350 T512,350 L512,512 L0,512 Z" fill="white" opacity="0.1"/>
  
  <!-- Hexagonal shapes -->
  <g transform="translate(256,200)">
    <polygon points="0,-40 35,-20 35,20 0,40 -35,20 -35,-20" fill="white" opacity="0.6"/>
    <polygon points="0,-60 52,-30 52,30 0,60 -52,30 -52,-30" fill="none" stroke="white" stroke-width="3" opacity="0.4"/>
  </g>
  
  <!-- Dots pattern -->
  <g opacity="0.3">
    <circle cx="150" cy="150" r="8" fill="white"/>
    <circle cx="362" cy="150" r="8" fill="white"/>
    <circle cx="150" cy="362" r="8" fill="white"/>
    <circle cx="362" cy="362" r="8" fill="white"/>
  </g>
  
  <!-- Text -->
  <text x="256" y="480" font-family="Arial, sans-serif" font-size="24" font-weight="bold" text-anchor="middle" fill="white" opacity="0.9">Gradient Art #3</text>
</svg>